<?xml version="1.0" encoding="UTF-8"?>
<svg width="1024" height="1024" viewBox="0 0 1024 1024" fill="none" xmlns="http://www.w3.org/2000/svg" role="img" aria-labelledby="title desc">
  <title id="title">ResuBuilder negative-space R logo with modern angled letterform</title>
  <desc id="desc">Minimal rounded-square logo using a gradient from #F66376 to #963DD9 with a centered transparent negative-space R in a sharper modern letterform.</desc>
  <defs>
    <linearGradient id="brandGradient" x1="112" y1="112" x2="912" y2="912" gradientUnits="userSpaceOnUse">
      <stop offset="0" stop-color="#F66376"/>
      <stop offset="1" stop-color="#963DD9"/>
    </linearGradient>
  </defs>

  <path fill="url(#brandGradient)" fill-rule="evenodd" clip-rule="evenodd" d="M296 112 H728 C829.62 112 912 194.38 912 296 V728 C912 829.62 829.62 912 728 912 H296 C194.38 912 112 829.62 112 728 V296 C112 194.38 194.38 112 296 112 Z M279.5 762.7640018837922H419.5239258841041L445.44181601169066 605.9102772155409H510.4048393184986L559.5478517682081 762.7640018837922H702.2645454577759L641.3406738591632 575.953235379759C695.196029968434 547.005981471026 731.2117993665089 498.53616097268224 741.6462746126801 436.2659054713379C759.1492653481932 328.8917892284792 695.196029968434 261.2359981162077 575.7044586009895 261.2359981162077H362.6392059936868ZM463.6179986985696 497.5263730456334 483.81375723954613 375.0054378970423H546.4206087165735C588.4951056769412 375.0054378970423 611.0470360476984 399.5769441218971 604.9883084854055 436.2659054713379C598.9295809231126 472.9548668207786 567.9627511602818 497.5263730456334 525.888254199914 497.5263730456334Z"/>
</svg>
